<svg id="Layer_1" data-name="Layer 1" xmlns="http://www.w3.org/2000/svg" viewBox="0 0 1011.65 151.34"><defs><style>.cls-1{fill:#73bf41;}</style></defs><title>Logo4</title><path class="cls-1" d="M282.19,439.59h-44l0,0c-.28,0-.57,0-.86,0A26.39,26.39,0,0,1,214.44,400v0L237,361.74l45.09,77.74Z" transform="translate(-109.42 -289.95)"/><path class="cls-1" d="M226.15,343l-47.46,82.78,0,0a25.61,25.61,0,0,1-3.66,5.17l0,0a26.26,26.26,0,0,1-19.14,8.62H109.42l.52-.9L195.39,290Z" transform="translate(-109.42 -289.95)"/><path d="M347,415.45,338.88,440H328.45L355,361.94h12.16L393.78,440H383l-8.34-24.56Zm25.6-7.87-7.65-22.47c-1.74-5.1-2.9-9.73-4.05-14.25h-.24c-1.15,4.63-2.43,9.38-3.93,14.13l-7.65,22.59Z" transform="translate(-109.42 -289.95)"/><path d="M405.25,362.87a116.8,116.8,0,0,1,19.34-1.51c10,0,17.26,2.32,21.89,6.49,4.29,3.7,6.84,9.38,6.84,16.33s-2.09,12.62-6,16.68c-5.33,5.67-14,8.57-23.86,8.57a34.56,34.56,0,0,1-8.11-.7V440H405.25Zm10.08,37.64a33.75,33.75,0,0,0,8.34.81c12.16,0,19.57-5.91,19.57-16.68,0-10.31-7.3-15.29-18.41-15.29a42.42,42.42,0,0,0-9.5.81Z" transform="translate(-109.42 -289.95)"/><path d="M530.58,405.72c-.58-10.88-1.28-24-1.16-33.7h-.35c-2.66,9.15-5.9,18.88-9.84,29.65l-13.79,37.88H497.8l-12.63-37.19c-3.7-11-6.83-21.08-9-30.34h-.23c-.23,9.73-.81,22.82-1.51,34.51L472.32,440H462.7l5.45-78.07H481l13.32,37.76c3.25,9.61,5.91,18.18,7.88,26.29h.35c2-7.87,4.75-16.44,8.22-26.29l13.9-37.76h12.86L542.39,440h-9.84Z" transform="translate(-109.42 -289.95)"/><path d="M612.47,437.46c-3.71,1.85-11.12,3.71-20.62,3.71-22,0-38.57-13.9-38.57-39.5,0-24.44,16.56-41,40.77-41,9.73,0,15.87,2.08,18.53,3.47l-2.43,8.22a36.72,36.72,0,0,0-15.75-3.24c-18.3,0-30.46,11.7-30.46,32.2,0,19.11,11,31.39,30,31.39,6.14,0,12.39-1.27,16.44-3.24Z" transform="translate(-109.42 -289.95)"/><path d="M644,370.51H620.23v-8.57H678v8.57H654.17V440H644Z" transform="translate(-109.42 -289.95)"/><path d="M686.71,362.87a116.93,116.93,0,0,1,19.35-1.51c10,0,17.26,2.32,21.89,6.49,4.28,3.7,6.83,9.38,6.83,16.33s-2.08,12.62-6,16.68c-5.33,5.67-14,8.57-23.86,8.57a34.66,34.66,0,0,1-8.11-.7V440H686.71Zm10.08,37.64a33.75,33.75,0,0,0,8.34.81c12.16,0,19.58-5.91,19.58-16.68,0-10.31-7.3-15.29-18.42-15.29a42.55,42.55,0,0,0-9.5.81Z" transform="translate(-109.42 -289.95)"/><path d="M814.13,400.16c0,26.88-16.34,41.12-36.26,41.12-20.62,0-35.09-16-35.09-39.61,0-24.79,15.4-41,36.25-41C800.34,360.67,814.13,377,814.13,400.16Zm-60.58,1.28c0,16.68,9,31.62,24.9,31.62s25-14.71,25-32.43c0-15.52-8.11-31.74-24.9-31.74S753.55,384.29,753.55,401.44Z" transform="translate(-109.42 -289.95)"/><path d="M836.71,361.94v32.9c0,12.39-.23,22.58-.92,33l.23.11c3.94-8.11,8.8-16.56,14.48-25.83l25.25-40.19h10.07V440h-9.49V406.77c0-12.63.11-21.9.92-31.74l-.34-.12c-3.83,8.57-9.16,17.61-14.48,26.3L838,440H827.21V361.94Zm12.74-16.33c.47,3.59,1.63,7.18,7.07,7.18s6.6-3.36,7.06-7.18h7.76c-.57,7.64-5.21,12.39-15.05,12.39-9.5,0-14-4.75-14.6-12.39Z" transform="translate(-109.42 -289.95)"/><path d="M913.39,361.94v34.63h3.13l26.76-34.63h12.16L925.9,397.73c12.86,1.74,17.84,9.61,21.89,20.15,2.9,8,5.1,15.18,8.57,22.13H945.48c-2.78-5.33-5-12.28-7.07-18.42-3.59-10.31-8.57-17.37-21.78-17.37h-3.24V440h-10V361.94Z" transform="translate(-109.42 -289.95)"/><path d="M1030.73,400.16c0,26.88-16.34,41.12-36.26,41.12-20.62,0-35.09-16-35.09-39.61,0-24.79,15.4-41,36.25-41C1016.94,360.67,1030.73,377,1030.73,400.16Zm-60.58,1.28c0,16.68,9,31.62,24.9,31.62s25-14.71,25-32.43c0-15.52-8.11-31.74-24.9-31.74S970.15,384.29,970.15,401.44Z" transform="translate(-109.42 -289.95)"/><path d="M1109.26,405.72c-.58-10.88-1.27-24-1.16-33.7h-.35c-2.66,9.15-5.9,18.88-9.84,29.65l-13.79,37.88h-7.64l-12.63-37.19c-3.7-11-6.83-21.08-9-30.34h-.23c-.23,9.73-.81,22.82-1.51,34.51L1051,440h-9.62l5.45-78.07h12.85L1073,399.7c3.25,9.61,5.91,18.18,7.88,26.29h.35c2-7.87,4.75-16.44,8.22-26.29l13.9-37.76h12.86l4.86,78.07h-9.84Z" transform="translate(-109.42 -289.95)"/></svg>