<?xml version="1.0" encoding="utf-8"?>
<!-- Generator: Adobe Illustrator 22.1.0, SVG Export Plug-In . SVG Version: 6.00 Build 0)  -->
<svg version="1.1" id="Layer_1" xmlns="http://www.w3.org/2000/svg" xmlns:xlink="http://www.w3.org/1999/xlink" x="0px" y="0px"
	 viewBox="0 0 1011.7 151.3" style="enable-background:new 0 0 1011.7 151.3;" xml:space="preserve">
<style type="text/css">
	.st0{fill:#73BF41;}
	.st1{enable-background:new    ;}
</style>
<title>Logo4</title>
<path class="st0" d="M172.8,149.6h-44l0,0c-0.3,0-0.6,0-0.9,0c-14.6,0-26.4-11.8-26.4-26.4c0-4.6,1.2-9.2,3.5-13.2l0,0l22.6-38.3
	l45.1,77.7L172.8,149.6z"/>
<path class="st0" d="M116.7,53l-47.5,82.8l0,0c-1,1.9-2.2,3.6-3.7,5.2l0,0c-4.9,5.4-11.8,8.5-19.1,8.6H0l0.5-0.9L86,0L116.7,53z"/>
<g class="st1">
	<path d="M271,149.2l-11.2-9.5c-4.8,6.6-12.9,10.3-23.2,10.3c-17.7,0-28.7-10.6-28.7-27.8V78.5h12.6v43.7c0,10.3,6.3,16.5,16.1,16.5
		c9.6,0,15.8-6.1,15.8-16.5V78.5h12.6v43.7c0,2.4-0.2,4.7-0.7,6.8l13.5,11.5L271,149.2z"/>
	<path d="M297.1,149.1h-12.6v-43.7c0-17.1,11-27.8,28.7-27.8c17.4,0,28.3,10.6,28.3,27.8v12.2h-12.6v-12.2
		c0-10.4-6.2-16.5-15.8-16.5c-9.8,0-16.1,6.2-16.1,16.5V149.1z"/>
	<path d="M429,89.5h-15.8v32.8c0,17.1-10.9,27.8-28.3,27.8c-17.7,0-28.7-10.6-28.7-27.8V78.5h12.6v43.7c0,10.3,6.3,16.5,16.1,16.5
		c9.6,0,15.8-6.1,15.8-16.5V78.5H429V89.5z"/>
	<path d="M462.5,138.8c9.6,0,15.8-6.1,15.8-16.5V78.5h12.6v43.7c0,17.1-10.9,27.8-28.3,27.8c-17.7,0-28.7-10.6-28.7-27.8V78.5h12.6
		v43.7C446.4,132.6,452.7,138.8,462.5,138.8z"/>
	<path d="M502.5,124.1H515c0.3,10.2,8,14.8,18.6,15c11.2,0.1,18.3-3.3,18.3-10.3c0.2-17.1-46.7-4.8-46.1-33
		c0.2-10.6,10.1-18.5,28.2-18.2c12.4,0.3,27.2,5.9,27.2,19.9h-12.5c0.2-4.4-5-8.9-14.7-9c-9.2-0.1-15.7,2.6-15.8,7.5
		c-0.3,15.7,47,3.9,46.1,33.8c-0.4,13.1-12.2,20.2-30.9,20.1C518.2,149.8,502,143,502.5,124.1z"/>
	<path d="M588.6,149.1H576v-43.7c0-17.1,11-27.8,28.7-27.8c17.4,0,28.3,10.6,28.3,27.8v12.2h-12.6v-12.2c0-10.4-6.2-16.5-15.8-16.5
		c-9.8,0-16.1,6.2-16.1,16.5V149.1z"/>
	<path d="M660.4,149.1h-12.6v-43.7c0-17.1,11-27.8,28.7-27.8c17.4,0,28.3,10.6,28.3,27.8v43.7h-12.6v-43.7
		c0-10.4-6.2-16.5-15.8-16.5c-9.8,0-16.1,6.2-16.1,16.5V149.1z"/>
	<path d="M719.2,116.8v-11h31.6c10,0,16.5-2,16.5-8.5c0-5.4-6.2-8.9-15.8-8.9c-8.8,0-13.3,3-14.2,8H725c0.7-13,13-18.8,26.4-18.7
		c14.1,0.1,28.5,6.7,28.5,20.5c0,5.7-3.7,11.3-10.2,12.9c11.7,4.1,14.4,10.8,14.3,17.7c-0.4,13.8-13.4,21.2-30.9,21.3
		c-16.2,0.1-33.3-7.8-32.7-23.9h12.5c0,8,8.5,13,20.2,13c10.6-0.1,18.5-3.2,18.5-11.6c0-6.2-6.2-10.7-20.5-10.7H719.2z"/>
	<path d="M850.2,93.2v56h-12.4v-21.3c-4,4.2-9.2,6.9-15.8,6.9c-18.4,0-27.2-11.7-27.2-28.7V78.5h12.5V106c0,10.3,4.4,17.4,14.7,17.4
		c9.1,0,15-4.8,15.8-14.4V93.2H850.2z"/>
	<path d="M877.6,149.1H865v-43.7c0-17.1,11-27.8,28.7-27.8c17.4,0,28.3,10.6,28.3,27.8v43.7h-12.6v-43.7c0-10.4-6.2-16.5-15.8-16.5
		c-9.8,0-16.1,6.2-16.1,16.5V149.1z"/>
	<path d="M1009.6,89.5h-15.8v32.8c0,17.1-10.9,27.8-28.3,27.8c-17.7,0-28.7-10.6-28.7-27.8V78.5h12.6v43.7
		c0,10.3,6.3,16.5,16.1,16.5c9.6,0,15.8-6.1,15.8-16.5V78.5h28.3V89.5z"/>
</g>
</svg>
