<svg width="1011.65" height="151.34" xmlns="http://www.w3.org/2000/svg">
 <defs>
  <style>.cls-1{fill:#73bf41;}</style>
 </defs>
 <title>Logo4</title>
 <g>
  <title>background</title>
  <rect x="-1" y="-1" width="1013.65" height="153.34" id="canvas_background" fill="none"/>
 </g>
 <g>
  <title>Layer 1</title>
  <path class="cls-1" d="m172.77,149.63999l-44,0l0,0c-0.28,0 -0.57,0 -0.86,0a26.39,26.39 0 0 1 -22.89,-39.59l0,0l22.56,-38.26l45.09,77.74l0.1,0.11z" id="svg_1"/>
  <path class="cls-1" d="m116.73,53.04999l-47.46,82.78l0,0a25.61,25.61 0 0 1 -3.66,5.17l0,0a26.26,26.26 0 0 1 -19.14,8.62l-46.47,0l0.52,-0.9l85.45,-148.67l30.76,53z" id="svg_2"/>
  <path d="m237.58,125.49999l-8.12,24.55l-10.43,0l26.55,-78.06l12.16,0l26.62,78.06l-10.78,0l-8.34,-24.56l-27.66,0.01zm25.6,-7.87l-7.65,-22.47c-1.74,-5.1 -2.9,-9.73 -4.05,-14.25l-0.24,0c-1.15,4.63 -2.43,9.38 -3.93,14.13l-7.65,22.59l23.52,0z" id="svg_3" fill="white"/>
  <path d="m296.83,72.91999a116.8,116.8 0 0 1 19.34,-1.51c10,0 17.26,2.32 21.89,6.49c4.29,3.7 6.84,9.38 6.84,16.33s-2.09,12.62 -6,16.68c-5.33,5.67 -14,8.57 -23.86,8.57a34.56,34.56 0 0 1 -8.11,-0.7l0,31.27l-10.1,0l0,-77.13zm10.08,37.64a33.75,33.75 0 0 0 8.34,0.81c12.16,0 19.57,-5.91 19.57,-16.68c0,-10.31 -7.3,-15.29 -18.41,-15.29a42.42,42.42 0 0 0 -9.5,0.81l0,30.35z" id="svg_4" fill="white"/>
  <path d="m421.16,115.76999c-0.58,-10.88 -1.28,-24 -1.16,-33.7l-0.35,0c-2.66,9.15 -5.9,18.88 -9.84,29.65l-13.79,37.88l-7.64,0l-12.63,-37.19c-3.7,-11 -6.83,-21.08 -9,-30.34l-0.23,0c-0.23,9.73 -0.81,22.82 -1.51,34.51l-2.11,33.47l-9.62,0l5.45,-78.07l12.85,0l13.32,37.76c3.25,9.61 5.91,18.18 7.88,26.29l0.35,0c2,-7.87 4.75,-16.44 8.22,-26.29l13.9,-37.76l12.86,0l4.86,78.07l-9.84,0l-1.97,-34.28z" id="svg_5" fill="white"/>
  <path d="m503.05,147.50999c-3.71,1.85 -11.12,3.71 -20.62,3.71c-22,0 -38.57,-13.9 -38.57,-39.5c0,-24.44 16.56,-41 40.77,-41c9.73,0 15.87,2.08 18.53,3.47l-2.43,8.22a36.72,36.72 0 0 0 -15.75,-3.24c-18.3,0 -30.46,11.7 -30.46,32.2c0,19.11 11,31.39 30,31.39c6.14,0 12.39,-1.27 16.44,-3.24l2.09,7.99z" id="svg_6" fill="white"/>
  <path d="m534.58,80.55999l-23.77,0l0,-8.57l57.77,0l0,8.57l-23.83,0l0,69.49l-10.17,0l0,-69.49z" id="svg_7" fill="white"/>
  <path d="m577.29,72.91999a116.93,116.93 0 0 1 19.35,-1.51c10,0 17.26,2.32 21.89,6.49c4.28,3.7 6.83,9.38 6.83,16.33s-2.08,12.62 -6,16.68c-5.33,5.67 -14,8.57 -23.86,8.57a34.66,34.66 0 0 1 -8.11,-0.7l0,31.27l-10.1,0l0,-77.13zm10.08,37.64a33.75,33.75 0 0 0 8.34,0.81c12.16,0 19.58,-5.91 19.58,-16.68c0,-10.31 -7.3,-15.29 -18.42,-15.29a42.55,42.55 0 0 0 -9.5,0.81l0,30.35z" id="svg_8" fill="white"/>
  <path d="m704.71,110.20999c0,26.88 -16.34,41.12 -36.26,41.12c-20.62,0 -35.09,-16 -35.09,-39.61c0,-24.79 15.4,-41 36.25,-41c21.31,0 35.1,16.33 35.1,39.49zm-60.58,1.28c0,16.68 9,31.62 24.9,31.62s25,-14.71 25,-32.43c0,-15.52 -8.11,-31.74 -24.9,-31.74s-25,15.4 -25,32.55z" id="svg_9" fill="white"/>
  <path d="m727.29,71.98999l0,32.9c0,12.39 -0.23,22.58 -0.92,33l0.23,0.11c3.94,-8.11 8.8,-16.56 14.48,-25.83l25.25,-40.19l10.07,0l0,78.07l-9.49,0l0,-33.23c0,-12.63 0.11,-21.9 0.92,-31.74l-0.34,-0.12c-3.83,8.57 -9.16,17.61 -14.48,26.3l-24.43,38.79l-10.79,0l0,-78.06l9.5,0zm12.74,-16.33c0.47,3.59 1.63,7.18 7.07,7.18s6.6,-3.36 7.06,-7.18l7.76,0c-0.57,7.64 -5.21,12.39 -15.05,12.39c-9.5,0 -14,-4.75 -14.6,-12.39l7.76,0z" id="svg_10" fill="white"/>
  <path d="m803.97,71.98999l0,34.63l3.13,0l26.76,-34.63l12.16,0l-29.54,35.79c12.86,1.74 17.84,9.61 21.89,20.15c2.9,8 5.1,15.18 8.57,22.13l-10.88,0c-2.78,-5.33 -5,-12.28 -7.07,-18.42c-3.59,-10.31 -8.57,-17.37 -21.78,-17.37l-3.24,0l0,35.78l-10,0l0,-78.06l10,0z" id="svg_11" fill="white"/>
  <path d="m921.31,110.20999c0,26.88 -16.34,41.12 -36.26,41.12c-20.62,0 -35.09,-16 -35.09,-39.61c0,-24.79 15.4,-41 36.25,-41c21.31,0 35.1,16.33 35.1,39.49zm-60.58,1.28c0,16.68 9,31.62 24.9,31.62s25,-14.71 25,-32.43c0,-15.52 -8.11,-31.74 -24.9,-31.74s-25,15.4 -25,32.55z" id="svg_12" fill="white"/>
  <path stroke-width="0" d="m999.84,115.76999c-0.58,-10.88 -1.27,-24 -1.16,-33.7l-0.35,0c-2.66,9.15 -5.9,18.88 -9.84,29.65l-13.79,37.88l-7.64,0l-12.63,-37.19c-3.7,-11 -6.83,-21.08 -9,-30.34l-0.23,0c-0.23,9.73 -0.81,22.82 -1.51,34.51l-2.11,33.47l-9.62,0l5.45,-78.07l12.85,0l13.32,37.77c3.25,9.61 5.91,18.18 7.88,26.29l0.35,0c2,-7.87 4.75,-16.44 8.22,-26.29l13.9,-37.76l12.86,0l4.86,78.07l-9.84,0l-1.97,-34.29z" id="svg_13" fill="#ffffff"/>
 </g>
</svg>